<mxfile host="app.diagrams.net" agent="Mozilla/5.0 (Windows NT 10.0; Win64; x64) AppleWebKit/537.36 (KHTML, like Gecko) Chrome/133.0.0.0 Safari/537.36" version="26.1.0">
  <diagram name="Page-1" id="kG-T58hATOvC6Lf3kqpy">
    <mxGraphModel dx="794" dy="446" grid="0" gridSize="10" guides="1" tooltips="1" connect="1" arrows="1" fold="1" page="1" pageScale="1" pageWidth="827" pageHeight="1169" math="0" shadow="0">
      <root>
        <mxCell id="0" />
        <mxCell id="1" parent="0" />
        <mxCell id="rq8LcoA_C-CREQ77X2FL-8" value="AWS Cloud" style="points=[[0,0],[0.25,0],[0.5,0],[0.75,0],[1,0],[1,0.25],[1,0.5],[1,0.75],[1,1],[0.75,1],[0.5,1],[0.25,1],[0,1],[0,0.75],[0,0.5],[0,0.25]];outlineConnect=0;gradientColor=none;html=1;whiteSpace=wrap;fontSize=12;fontStyle=0;container=1;pointerEvents=0;collapsible=0;recursiveResize=0;shape=mxgraph.aws4.group;grIcon=mxgraph.aws4.group_aws_cloud_alt;strokeColor=#232F3E;fillColor=none;verticalAlign=top;align=left;spacingLeft=30;fontColor=#232F3E;dashed=0;movable=1;resizable=1;rotatable=1;deletable=1;editable=1;locked=0;connectable=1;" parent="1" vertex="1">
          <mxGeometry x="53" y="8" width="605" height="408" as="geometry" />
        </mxCell>
        <mxCell id="rq8LcoA_C-CREQ77X2FL-10" value="&lt;font style=&quot;color: light-dark(rgb(20, 126, 186), rgb(37, 102, 168));&quot;&gt;Region&lt;/font&gt;&lt;div&gt;&lt;font style=&quot;color: light-dark(rgb(20, 126, 186), rgb(37, 102, 168));&quot;&gt;Europe&lt;/font&gt;&lt;/div&gt;" style="sketch=0;outlineConnect=0;html=1;whiteSpace=wrap;fontSize=12;fontStyle=0;shape=mxgraph.aws4.group;grIcon=mxgraph.aws4.group_region;verticalAlign=top;align=left;spacingLeft=30;dashed=1;strokeColor=light-dark(#147EBA,#2566A8);" parent="rq8LcoA_C-CREQ77X2FL-8" vertex="1">
          <mxGeometry x="30" y="30" width="565" height="347" as="geometry" />
        </mxCell>
        <mxCell id="rq8LcoA_C-CREQ77X2FL-11" value="Availability Zone&lt;div&gt;Europe-a&lt;/div&gt;" style="fillColor=none;strokeColor=#147EBA;dashed=1;verticalAlign=top;fontStyle=0;fontColor=#147EBA;whiteSpace=wrap;html=1;movable=0;resizable=0;rotatable=0;deletable=0;editable=0;locked=1;connectable=0;" parent="rq8LcoA_C-CREQ77X2FL-8" vertex="1">
          <mxGeometry x="121" y="38" width="130" height="260" as="geometry" />
        </mxCell>
        <mxCell id="rq8LcoA_C-CREQ77X2FL-14" value="VPC" style="sketch=0;outlineConnect=0;gradientColor=none;html=1;whiteSpace=wrap;fontSize=12;fontStyle=0;shape=mxgraph.aws4.group;grIcon=mxgraph.aws4.group_vpc;strokeColor=light-dark(#0E7109,#EDEDED);fillColor=none;verticalAlign=top;align=left;spacingLeft=30;fontColor=#879196;dashed=0;" parent="rq8LcoA_C-CREQ77X2FL-8" vertex="1">
          <mxGeometry x="48" y="76" width="532" height="296" as="geometry" />
        </mxCell>
        <mxCell id="rq8LcoA_C-CREQ77X2FL-22" value="Availability Zone&lt;div&gt;Europe-c&lt;/div&gt;" style="fillColor=none;strokeColor=#147EBA;dashed=1;verticalAlign=top;fontStyle=0;fontColor=#147EBA;whiteSpace=wrap;html=1;movable=0;resizable=0;rotatable=0;deletable=0;editable=0;locked=1;connectable=0;" parent="rq8LcoA_C-CREQ77X2FL-8" vertex="1">
          <mxGeometry x="400" y="38" width="130" height="260" as="geometry" />
        </mxCell>
        <mxCell id="rq8LcoA_C-CREQ77X2FL-21" value="Availability Zone&lt;div&gt;Europe-b&lt;/div&gt;" style="fillColor=none;strokeColor=#147EBA;dashed=1;verticalAlign=top;fontStyle=0;fontColor=#147EBA;whiteSpace=wrap;html=1;movable=0;resizable=0;rotatable=0;deletable=0;editable=0;locked=1;connectable=0;" parent="rq8LcoA_C-CREQ77X2FL-8" vertex="1">
          <mxGeometry x="260.5" y="38" width="130.5" height="260" as="geometry" />
        </mxCell>
        <mxCell id="rq8LcoA_C-CREQ77X2FL-24" value="Public subnet:&lt;div&gt;192.168.1.0 /24&lt;/div&gt;" style="points=[[0,0],[0.25,0],[0.5,0],[0.75,0],[1,0],[1,0.25],[1,0.5],[1,0.75],[1,1],[0.75,1],[0.5,1],[0.25,1],[0,1],[0,0.75],[0,0.5],[0,0.25]];outlineConnect=0;gradientColor=none;html=1;whiteSpace=wrap;fontSize=12;fontStyle=0;container=1;pointerEvents=0;collapsible=0;recursiveResize=0;shape=mxgraph.aws4.group;grIcon=mxgraph.aws4.group_security_group;grStroke=0;strokeColor=#7AA116;fillColor=#F2F6E8;verticalAlign=top;align=left;spacingLeft=30;fontColor=#248814;dashed=0;movable=1;resizable=1;rotatable=1;deletable=1;editable=1;locked=0;connectable=1;" parent="rq8LcoA_C-CREQ77X2FL-8" vertex="1">
          <mxGeometry x="123.5" y="86" width="125.5" height="190" as="geometry" />
        </mxCell>
        <mxCell id="rq8LcoA_C-CREQ77X2FL-26" value="" style="sketch=0;outlineConnect=0;fontColor=#232F3E;gradientColor=none;fillColor=#ED7100;strokeColor=none;dashed=0;verticalLabelPosition=bottom;verticalAlign=top;align=center;html=1;fontSize=12;fontStyle=0;aspect=fixed;pointerEvents=1;shape=mxgraph.aws4.instance2;" parent="rq8LcoA_C-CREQ77X2FL-24" vertex="1">
          <mxGeometry x="49.5" y="59" width="26" height="26" as="geometry" />
        </mxCell>
        <mxCell id="rq8LcoA_C-CREQ77X2FL-47" value="&lt;font style=&quot;color: rgb(178, 102, 255);&quot;&gt;NAT Gateway&lt;/font&gt;&lt;div&gt;&lt;font style=&quot;color: rgb(178, 102, 255);&quot;&gt;(nat-gw-id)&lt;/font&gt;&lt;/div&gt;" style="sketch=0;outlineConnect=0;fontColor=#232F3E;gradientColor=none;fillColor=#8C4FFF;strokeColor=none;dashed=0;verticalLabelPosition=bottom;verticalAlign=top;align=center;html=1;fontSize=12;fontStyle=0;aspect=fixed;pointerEvents=1;shape=mxgraph.aws4.nat_gateway;movable=1;resizable=1;rotatable=1;deletable=1;editable=1;locked=0;connectable=1;" parent="rq8LcoA_C-CREQ77X2FL-24" vertex="1">
          <mxGeometry x="33.5" y="96" width="27" height="27" as="geometry" />
        </mxCell>
        <mxCell id="rq8LcoA_C-CREQ77X2FL-23" value="Private subnet:&lt;div&gt;192.168.2.0 /24&lt;/div&gt;" style="points=[[0,0,0,0,0],[0,0.25,0,0,0],[0,0.5,0,0,0],[0,0.75,0,0,0],[0,1,0,0,0],[0.25,0,0,0,0],[0.25,1,0,0,0],[0.5,0,0,0,0],[0.5,0.98,0,0,0],[0.5,0.99,0,0,0],[0.5,1,0,0,0],[0.75,0,0,0,0],[0.75,1,0,0,0],[1,0,0,0,0],[1,0.25,0,0,0],[1,0.5,0,0,0],[1,0.75,0,0,0],[1,1,0,0,0]];outlineConnect=0;gradientColor=none;html=1;whiteSpace=wrap;fontSize=12;fontStyle=0;container=1;pointerEvents=0;collapsible=0;recursiveResize=0;shape=mxgraph.aws4.group;grIcon=mxgraph.aws4.group_security_group;grStroke=0;strokeColor=#00A4A6;fillColor=#E6F6F7;verticalAlign=top;align=left;spacingLeft=30;fontColor=#147EBA;dashed=0;" parent="rq8LcoA_C-CREQ77X2FL-8" vertex="1">
          <mxGeometry x="263.38" y="86" width="124.75" height="190" as="geometry" />
        </mxCell>
        <mxCell id="rq8LcoA_C-CREQ77X2FL-37" value="" style="sketch=0;outlineConnect=0;fontColor=#232F3E;gradientColor=none;fillColor=#ED7100;strokeColor=none;dashed=0;verticalLabelPosition=bottom;verticalAlign=top;align=center;html=1;fontSize=12;fontStyle=0;aspect=fixed;pointerEvents=1;shape=mxgraph.aws4.instance2;" parent="rq8LcoA_C-CREQ77X2FL-23" vertex="1">
          <mxGeometry x="49.38" y="59" width="26" height="26" as="geometry" />
        </mxCell>
        <mxCell id="rq8LcoA_C-CREQ77X2FL-120" value="&lt;font style=&quot;color: rgb(178, 102, 255);&quot;&gt;EMI&lt;/font&gt;" style="sketch=0;outlineConnect=0;fontColor=#232F3E;gradientColor=none;fillColor=#8C4FFF;strokeColor=none;dashed=0;verticalLabelPosition=bottom;verticalAlign=top;align=center;html=1;fontSize=12;fontStyle=0;aspect=fixed;pointerEvents=1;shape=mxgraph.aws4.elastic_network_interface;" parent="rq8LcoA_C-CREQ77X2FL-23" vertex="1">
          <mxGeometry x="47.879999999999995" y="99.75" width="29" height="29" as="geometry" />
        </mxCell>
        <mxCell id="rq8LcoA_C-CREQ77X2FL-25" value="Administrative&lt;div&gt;Subnet:&lt;/div&gt;&lt;div&gt;192.168.3.0 /28&lt;/div&gt;" style="sketch=0;outlineConnect=0;gradientColor=none;html=1;whiteSpace=wrap;fontSize=12;fontStyle=0;shape=mxgraph.aws4.group;grIcon=mxgraph.aws4.group_subnet;strokeColor=#879196;fillColor=none;verticalAlign=top;align=left;spacingLeft=30;fontColor=#879196;dashed=0;points=[[0.5,1,0,0,0]];" parent="rq8LcoA_C-CREQ77X2FL-8" vertex="1">
          <mxGeometry x="402.38" y="86" width="125.25" height="190" as="geometry" />
        </mxCell>
        <mxCell id="rq8LcoA_C-CREQ77X2FL-38" value="" style="sketch=0;outlineConnect=0;fontColor=#232F3E;gradientColor=none;fillColor=#ED7100;strokeColor=none;dashed=0;verticalLabelPosition=bottom;verticalAlign=top;align=center;html=1;fontSize=12;fontStyle=0;aspect=fixed;pointerEvents=1;shape=mxgraph.aws4.instance2;" parent="rq8LcoA_C-CREQ77X2FL-8" vertex="1">
          <mxGeometry x="452.01" y="145" width="26" height="26" as="geometry" />
        </mxCell>
        <mxCell id="rq8LcoA_C-CREQ77X2FL-44" value="" style="sketch=0;points=[[0,0,0],[0.25,0,0],[0.5,0,0],[0.75,0,0],[1,0,0],[0,1,0],[0.25,1,0],[0.5,1,0],[0.75,1,0],[1,1,0],[0,0.25,0],[0,0.5,0],[0,0.75,0],[1,0.25,0],[1,0.5,0],[1,0.75,0]];points=[[0,0,0],[0.25,0,0],[0.5,0,0],[0.75,0,0],[1,0,0],[0,1,0],[0.25,1,0],[0.5,1,0],[0.75,1,0],[1,1,0],[0,0.25,0],[0,0.5,0],[0,0.75,0],[1,0.25,0],[1,0.5,0],[1,0.75,0]];outlineConnect=0;fontColor=#232F3E;fillColor=#E7157B;strokeColor=#ffffff;dashed=0;verticalLabelPosition=bottom;verticalAlign=top;align=center;html=1;fontSize=12;fontStyle=0;aspect=fixed;shape=mxgraph.aws4.resourceIcon;resIcon=mxgraph.aws4.cloudwatch_2;" parent="rq8LcoA_C-CREQ77X2FL-8" vertex="1">
          <mxGeometry x="496.51" y="185.75" width="20" height="20" as="geometry" />
        </mxCell>
        <mxCell id="rq8LcoA_C-CREQ77X2FL-45" value="Monitoreo" style="points=[[0,0],[0.25,0],[0.5,0],[0.75,0],[1,0],[1,0.25],[1,0.5],[1,0.75],[1,1],[0.75,1],[0.5,1],[0.25,1],[0,1],[0,0.75],[0,0.5],[0,0.25]];outlineConnect=0;gradientColor=none;html=1;whiteSpace=wrap;fontSize=12;fontStyle=0;container=1;pointerEvents=0;collapsible=0;recursiveResize=0;shape=mxgraph.aws4.group;grIcon=mxgraph.aws4.group_on_premise;strokeColor=#7D8998;fillColor=none;verticalAlign=top;align=left;spacingLeft=30;fontColor=#5A6C86;dashed=0;" parent="rq8LcoA_C-CREQ77X2FL-8" vertex="1">
          <mxGeometry x="406.51" y="183" width="117" height="25.5" as="geometry" />
        </mxCell>
        <mxCell id="rq8LcoA_C-CREQ77X2FL-46" value="Administración" style="points=[[0,0],[0.25,0],[0.5,0],[0.75,0],[1,0],[1,0.25],[1,0.5],[1,0.75],[1,1],[0.75,1],[0.5,1],[0.25,1],[0,1],[0,0.75],[0,0.5],[0,0.25]];outlineConnect=0;gradientColor=none;html=1;whiteSpace=wrap;fontSize=12;fontStyle=0;container=1;pointerEvents=0;collapsible=0;recursiveResize=0;shape=mxgraph.aws4.group;grIcon=mxgraph.aws4.group_on_premise;strokeColor=#7D8998;fillColor=none;verticalAlign=top;align=left;spacingLeft=30;fontColor=#5A6C86;dashed=0;" parent="rq8LcoA_C-CREQ77X2FL-8" vertex="1">
          <mxGeometry x="406.51" y="214.75" width="117" height="25.5" as="geometry" />
        </mxCell>
        <mxCell id="rq8LcoA_C-CREQ77X2FL-48" value="&lt;font style=&quot;color: rgb(178, 102, 255);&quot;&gt;Gateway Internet&lt;/font&gt;&lt;div&gt;&lt;font style=&quot;color: rgb(178, 102, 255);&quot;&gt;(igw-id)&lt;/font&gt;&lt;/div&gt;" style="sketch=0;outlineConnect=0;fontColor=#232F3E;gradientColor=none;fillColor=#8C4FFF;strokeColor=none;dashed=0;verticalLabelPosition=bottom;verticalAlign=top;align=center;html=1;fontSize=12;fontStyle=0;aspect=fixed;pointerEvents=1;shape=mxgraph.aws4.internet_gateway;" parent="rq8LcoA_C-CREQ77X2FL-8" vertex="1">
          <mxGeometry x="581" y="340" width="32" height="32" as="geometry" />
        </mxCell>
        <mxCell id="rq8LcoA_C-CREQ77X2FL-81" style="edgeStyle=orthogonalEdgeStyle;rounded=0;orthogonalLoop=1;jettySize=auto;html=1;strokeColor=#B266FF;" parent="rq8LcoA_C-CREQ77X2FL-8" source="rq8LcoA_C-CREQ77X2FL-60" target="rq8LcoA_C-CREQ77X2FL-48" edge="1">
          <mxGeometry relative="1" as="geometry">
            <Array as="points">
              <mxPoint x="177" y="364" />
              <mxPoint x="480" y="364" />
              <mxPoint x="480" y="352" />
            </Array>
          </mxGeometry>
        </mxCell>
        <mxCell id="rq8LcoA_C-CREQ77X2FL-60" value="&lt;font style=&quot;color: rgb(178, 102, 255);&quot;&gt;Publica&lt;/font&gt;" style="sketch=0;outlineConnect=0;fontColor=#232F3E;gradientColor=none;fillColor=#8C4FFF;strokeColor=none;dashed=0;verticalLabelPosition=bottom;verticalAlign=top;align=center;html=1;fontSize=12;fontStyle=0;aspect=fixed;pointerEvents=1;shape=mxgraph.aws4.route_table;" parent="rq8LcoA_C-CREQ77X2FL-8" vertex="1">
          <mxGeometry x="163" y="309" width="27.71" height="27" as="geometry" />
        </mxCell>
        <mxCell id="rq8LcoA_C-CREQ77X2FL-73" value="" style="endArrow=classic;html=1;rounded=0;entryX=0.5;entryY=1;entryDx=0;entryDy=0;exitX=0.5;exitY=1;exitDx=0;exitDy=0;exitPerimeter=0;strokeColor=#787878;" parent="rq8LcoA_C-CREQ77X2FL-8" edge="1">
          <mxGeometry width="50" height="50" relative="1" as="geometry">
            <mxPoint x="465.2550000000001" y="268" as="sourcePoint" />
            <mxPoint x="186.5" y="268" as="targetPoint" />
            <Array as="points">
              <mxPoint x="465.25" y="290" />
              <mxPoint x="288.25" y="290" />
              <mxPoint x="186.25" y="290" />
            </Array>
          </mxGeometry>
        </mxCell>
        <mxCell id="rq8LcoA_C-CREQ77X2FL-74" value="&lt;font style=&quot;color: rgb(178, 102, 255);&quot;&gt;Privada&lt;/font&gt;" style="sketch=0;outlineConnect=0;fontColor=#232F3E;gradientColor=none;fillColor=#8C4FFF;strokeColor=none;dashed=0;verticalLabelPosition=bottom;verticalAlign=top;align=center;html=1;fontSize=12;fontStyle=0;aspect=fixed;pointerEvents=1;shape=mxgraph.aws4.route_table;" parent="rq8LcoA_C-CREQ77X2FL-8" vertex="1">
          <mxGeometry x="255.00000000000003" y="309" width="27.71" height="27" as="geometry" />
        </mxCell>
        <mxCell id="rq8LcoA_C-CREQ77X2FL-78" value="&lt;font style=&quot;color: light-dark(rgb(140, 79, 255), rgb(237, 237, 237));&quot;&gt;Tablas de Enrutamiento&lt;/font&gt;" style="text;html=1;align=center;verticalAlign=middle;whiteSpace=wrap;rounded=0;" parent="rq8LcoA_C-CREQ77X2FL-8" vertex="1">
          <mxGeometry x="83" y="336" width="60" height="30" as="geometry" />
        </mxCell>
        <mxCell id="rq8LcoA_C-CREQ77X2FL-71" value="" style="endArrow=classic;html=1;rounded=0;exitX=0.5;exitY=1;exitDx=0;exitDy=0;exitPerimeter=0;strokeColor=light-dark(#7f7f7f, #ededed);" parent="rq8LcoA_C-CREQ77X2FL-8" edge="1">
          <mxGeometry width="50" height="50" relative="1" as="geometry">
            <mxPoint x="466.0050000000001" y="270" as="sourcePoint" />
            <mxPoint x="323" y="269" as="targetPoint" />
            <Array as="points">
              <mxPoint x="466" y="283" />
              <mxPoint x="323" y="283" />
            </Array>
          </mxGeometry>
        </mxCell>
        <mxCell id="rq8LcoA_C-CREQ77X2FL-86" value="" style="endArrow=classic;startArrow=classic;html=1;rounded=0;strokeColor=#B266FF;" parent="rq8LcoA_C-CREQ77X2FL-8" source="rq8LcoA_C-CREQ77X2FL-60" target="rq8LcoA_C-CREQ77X2FL-47" edge="1">
          <mxGeometry width="50" height="50" relative="1" as="geometry">
            <mxPoint x="58" y="258.5" as="sourcePoint" />
            <mxPoint x="108" y="208.5" as="targetPoint" />
            <Array as="points">
              <mxPoint x="90" y="323" />
              <mxPoint x="90" y="199" />
            </Array>
          </mxGeometry>
        </mxCell>
        <mxCell id="rq8LcoA_C-CREQ77X2FL-87" value="" style="endArrow=classic;startArrow=classic;html=1;rounded=0;strokeColor=#B266FF;" parent="rq8LcoA_C-CREQ77X2FL-8" source="rq8LcoA_C-CREQ77X2FL-74" target="rq8LcoA_C-CREQ77X2FL-120" edge="1">
          <mxGeometry width="50" height="50" relative="1" as="geometry">
            <mxPoint x="354" y="223" as="sourcePoint" />
            <mxPoint x="404" y="173" as="targetPoint" />
            <Array as="points">
              <mxPoint x="294" y="319" />
              <mxPoint x="294" y="203" />
            </Array>
          </mxGeometry>
        </mxCell>
        <mxCell id="rq8LcoA_C-CREQ77X2FL-88" value="" style="endArrow=classic;startArrow=classic;html=1;rounded=0;strokeColor=#B266FF;" parent="rq8LcoA_C-CREQ77X2FL-8" source="rq8LcoA_C-CREQ77X2FL-74" target="rq8LcoA_C-CREQ77X2FL-47" edge="1">
          <mxGeometry width="50" height="50" relative="1" as="geometry">
            <mxPoint x="354" y="223" as="sourcePoint" />
            <mxPoint x="150" y="196" as="targetPoint" />
            <Array as="points">
              <mxPoint x="269" y="196" />
            </Array>
          </mxGeometry>
        </mxCell>
        <mxCell id="rq8LcoA_C-CREQ77X2FL-90" value="&lt;font style=&quot;color: light-dark(rgb(14, 113, 9), rgb(237, 237, 237));&quot;&gt;192.168.0.0 /16&lt;/font&gt;" style="text;html=1;align=center;verticalAlign=middle;whiteSpace=wrap;rounded=0;" parent="rq8LcoA_C-CREQ77X2FL-8" vertex="1">
          <mxGeometry x="467" y="347" width="117" height="30" as="geometry" />
        </mxCell>
        <mxCell id="rq8LcoA_C-CREQ77X2FL-118" value="" style="sketch=0;points=[[0,0,0],[0.25,0,0],[0.5,0,0],[0.75,0,0],[1,0,0],[0,1,0],[0.25,1,0],[0.5,1,0],[0.75,1,0],[1,1,0],[0,0.25,0],[0,0.5,0],[0,0.75,0],[1,0.25,0],[1,0.5,0],[1,0.75,0]];outlineConnect=0;fontColor=#232F3E;fillColor=#8C4FFF;strokeColor=#ffffff;dashed=0;verticalLabelPosition=bottom;verticalAlign=top;align=center;html=1;fontSize=12;fontStyle=0;aspect=fixed;shape=mxgraph.aws4.resourceIcon;resIcon=mxgraph.aws4.direct_connect;" parent="rq8LcoA_C-CREQ77X2FL-8" vertex="1">
          <mxGeometry x="406.51" y="245" width="28" height="28" as="geometry" />
        </mxCell>
        <mxCell id="rq8LcoA_C-CREQ77X2FL-50" value="Internet" style="sketch=0;outlineConnect=0;fontColor=#232F3E;gradientColor=none;fillColor=#232F3D;strokeColor=none;dashed=0;verticalLabelPosition=bottom;verticalAlign=top;align=center;html=1;fontSize=12;fontStyle=0;aspect=fixed;pointerEvents=1;shape=mxgraph.aws4.internet_alt22;" parent="1" vertex="1">
          <mxGeometry x="705.25" y="325" width="78" height="78" as="geometry" />
        </mxCell>
        <mxCell id="rq8LcoA_C-CREQ77X2FL-80" value="" style="endArrow=classic;startArrow=classic;html=1;rounded=0;" parent="1" source="rq8LcoA_C-CREQ77X2FL-48" target="rq8LcoA_C-CREQ77X2FL-50" edge="1">
          <mxGeometry width="50" height="50" relative="1" as="geometry">
            <mxPoint x="407" y="231" as="sourcePoint" />
            <mxPoint x="457" y="181" as="targetPoint" />
          </mxGeometry>
        </mxCell>
        <mxCell id="rq8LcoA_C-CREQ77X2FL-93" value="" style="shape=table;startSize=0;container=1;collapsible=0;childLayout=tableLayout;" parent="1" vertex="1">
          <mxGeometry x="668" y="37" width="149.83331298828125" height="71.17" as="geometry" />
        </mxCell>
        <mxCell id="rq8LcoA_C-CREQ77X2FL-94" value="" style="shape=tableRow;horizontal=0;startSize=0;swimlaneHead=0;swimlaneBody=0;strokeColor=inherit;top=0;left=0;bottom=0;right=0;collapsible=0;dropTarget=0;fillColor=none;points=[[0,0.5],[1,0.5]];portConstraint=eastwest;fontSize=12;" parent="rq8LcoA_C-CREQ77X2FL-93" vertex="1">
          <mxGeometry width="149.83331298828125" height="20" as="geometry" />
        </mxCell>
        <mxCell id="rq8LcoA_C-CREQ77X2FL-95" value="Destino" style="shape=partialRectangle;html=1;whiteSpace=wrap;connectable=0;strokeColor=inherit;overflow=hidden;fillColor=none;top=0;left=0;bottom=0;right=0;pointerEvents=1;fontSize=12;" parent="rq8LcoA_C-CREQ77X2FL-94" vertex="1">
          <mxGeometry width="90" height="20" as="geometry">
            <mxRectangle width="90" height="20" as="alternateBounds" />
          </mxGeometry>
        </mxCell>
        <mxCell id="rq8LcoA_C-CREQ77X2FL-96" value="Objetivo" style="shape=partialRectangle;html=1;whiteSpace=wrap;connectable=0;strokeColor=inherit;overflow=hidden;fillColor=none;top=0;left=0;bottom=0;right=0;pointerEvents=1;fontSize=12;" parent="rq8LcoA_C-CREQ77X2FL-94" vertex="1">
          <mxGeometry x="90" width="60" height="20" as="geometry">
            <mxRectangle width="60" height="20" as="alternateBounds" />
          </mxGeometry>
        </mxCell>
        <mxCell id="rq8LcoA_C-CREQ77X2FL-98" value="" style="shape=tableRow;horizontal=0;startSize=0;swimlaneHead=0;swimlaneBody=0;strokeColor=inherit;top=0;left=0;bottom=0;right=0;collapsible=0;dropTarget=0;fillColor=none;points=[[0,0.5],[1,0.5]];portConstraint=eastwest;fontSize=12;" parent="rq8LcoA_C-CREQ77X2FL-93" vertex="1">
          <mxGeometry y="20" width="149.83331298828125" height="24" as="geometry" />
        </mxCell>
        <mxCell id="rq8LcoA_C-CREQ77X2FL-99" value="192.168.0.0/16&amp;nbsp;" style="shape=partialRectangle;html=1;whiteSpace=wrap;connectable=0;strokeColor=inherit;overflow=hidden;fillColor=none;top=0;left=0;bottom=0;right=0;pointerEvents=1;fontSize=12;" parent="rq8LcoA_C-CREQ77X2FL-98" vertex="1">
          <mxGeometry width="90" height="24" as="geometry">
            <mxRectangle width="90" height="24" as="alternateBounds" />
          </mxGeometry>
        </mxCell>
        <mxCell id="rq8LcoA_C-CREQ77X2FL-100" value="local " style="shape=partialRectangle;html=1;whiteSpace=wrap;connectable=0;strokeColor=inherit;overflow=hidden;fillColor=none;top=0;left=0;bottom=0;right=0;pointerEvents=1;" parent="rq8LcoA_C-CREQ77X2FL-98" vertex="1">
          <mxGeometry x="90" width="60" height="24" as="geometry">
            <mxRectangle width="60" height="24" as="alternateBounds" />
          </mxGeometry>
        </mxCell>
        <mxCell id="rq8LcoA_C-CREQ77X2FL-102" value="" style="shape=tableRow;horizontal=0;startSize=0;swimlaneHead=0;swimlaneBody=0;strokeColor=inherit;top=0;left=0;bottom=0;right=0;collapsible=0;dropTarget=0;fillColor=none;points=[[0,0.5],[1,0.5]];portConstraint=eastwest;fontSize=12;" parent="rq8LcoA_C-CREQ77X2FL-93" vertex="1">
          <mxGeometry y="44" width="149.83331298828125" height="27" as="geometry" />
        </mxCell>
        <mxCell id="rq8LcoA_C-CREQ77X2FL-103" value="0.0.0.0/0 " style="shape=partialRectangle;html=1;whiteSpace=wrap;connectable=0;strokeColor=inherit;overflow=hidden;fillColor=none;top=0;left=0;bottom=0;right=0;pointerEvents=1;" parent="rq8LcoA_C-CREQ77X2FL-102" vertex="1">
          <mxGeometry width="90" height="27" as="geometry">
            <mxRectangle width="90" height="27" as="alternateBounds" />
          </mxGeometry>
        </mxCell>
        <mxCell id="rq8LcoA_C-CREQ77X2FL-104" value="igw-id&amp;nbsp;" style="shape=partialRectangle;html=1;whiteSpace=wrap;connectable=0;strokeColor=inherit;overflow=hidden;fillColor=none;top=0;left=0;bottom=0;right=0;pointerEvents=1;" parent="rq8LcoA_C-CREQ77X2FL-102" vertex="1">
          <mxGeometry x="90" width="60" height="27" as="geometry">
            <mxRectangle width="60" height="27" as="alternateBounds" />
          </mxGeometry>
        </mxCell>
        <mxCell id="rq8LcoA_C-CREQ77X2FL-106" value="" style="shape=table;startSize=0;container=1;collapsible=0;childLayout=tableLayout;" parent="1" vertex="1">
          <mxGeometry x="668" y="138.99999999999997" width="152.5" height="71.17" as="geometry" />
        </mxCell>
        <mxCell id="rq8LcoA_C-CREQ77X2FL-107" value="" style="shape=tableRow;horizontal=0;startSize=0;swimlaneHead=0;swimlaneBody=0;strokeColor=inherit;top=0;left=0;bottom=0;right=0;collapsible=0;dropTarget=0;fillColor=none;points=[[0,0.5],[1,0.5]];portConstraint=eastwest;fontSize=12;" parent="rq8LcoA_C-CREQ77X2FL-106" vertex="1">
          <mxGeometry width="152.5" height="20" as="geometry" />
        </mxCell>
        <mxCell id="rq8LcoA_C-CREQ77X2FL-108" value="Destino" style="shape=partialRectangle;html=1;whiteSpace=wrap;connectable=0;strokeColor=inherit;overflow=hidden;fillColor=none;top=0;left=0;bottom=0;right=0;pointerEvents=1;fontSize=12;" parent="rq8LcoA_C-CREQ77X2FL-107" vertex="1">
          <mxGeometry width="90" height="20" as="geometry">
            <mxRectangle width="90" height="20" as="alternateBounds" />
          </mxGeometry>
        </mxCell>
        <mxCell id="rq8LcoA_C-CREQ77X2FL-109" value="Objetivo" style="shape=partialRectangle;html=1;whiteSpace=wrap;connectable=0;strokeColor=inherit;overflow=hidden;fillColor=none;top=0;left=0;bottom=0;right=0;pointerEvents=1;fontSize=12;" parent="rq8LcoA_C-CREQ77X2FL-107" vertex="1">
          <mxGeometry x="90" width="63" height="20" as="geometry">
            <mxRectangle width="63" height="20" as="alternateBounds" />
          </mxGeometry>
        </mxCell>
        <mxCell id="rq8LcoA_C-CREQ77X2FL-110" value="" style="shape=tableRow;horizontal=0;startSize=0;swimlaneHead=0;swimlaneBody=0;strokeColor=inherit;top=0;left=0;bottom=0;right=0;collapsible=0;dropTarget=0;fillColor=none;points=[[0,0.5],[1,0.5]];portConstraint=eastwest;fontSize=12;" parent="rq8LcoA_C-CREQ77X2FL-106" vertex="1">
          <mxGeometry y="20" width="152.5" height="24" as="geometry" />
        </mxCell>
        <mxCell id="rq8LcoA_C-CREQ77X2FL-111" value="192.168.0.0/16&amp;nbsp;" style="shape=partialRectangle;html=1;whiteSpace=wrap;connectable=0;strokeColor=inherit;overflow=hidden;fillColor=none;top=0;left=0;bottom=0;right=0;pointerEvents=1;fontSize=12;" parent="rq8LcoA_C-CREQ77X2FL-110" vertex="1">
          <mxGeometry width="90" height="24" as="geometry">
            <mxRectangle width="90" height="24" as="alternateBounds" />
          </mxGeometry>
        </mxCell>
        <mxCell id="rq8LcoA_C-CREQ77X2FL-112" value="local " style="shape=partialRectangle;html=1;whiteSpace=wrap;connectable=0;strokeColor=inherit;overflow=hidden;fillColor=none;top=0;left=0;bottom=0;right=0;pointerEvents=1;" parent="rq8LcoA_C-CREQ77X2FL-110" vertex="1">
          <mxGeometry x="90" width="63" height="24" as="geometry">
            <mxRectangle width="63" height="24" as="alternateBounds" />
          </mxGeometry>
        </mxCell>
        <mxCell id="rq8LcoA_C-CREQ77X2FL-113" value="" style="shape=tableRow;horizontal=0;startSize=0;swimlaneHead=0;swimlaneBody=0;strokeColor=inherit;top=0;left=0;bottom=0;right=0;collapsible=0;dropTarget=0;fillColor=none;points=[[0,0.5],[1,0.5]];portConstraint=eastwest;fontSize=12;" parent="rq8LcoA_C-CREQ77X2FL-106" vertex="1">
          <mxGeometry y="44" width="152.5" height="27" as="geometry" />
        </mxCell>
        <mxCell id="rq8LcoA_C-CREQ77X2FL-114" value="0.0.0.0/0 " style="shape=partialRectangle;html=1;whiteSpace=wrap;connectable=0;strokeColor=inherit;overflow=hidden;fillColor=none;top=0;left=0;bottom=0;right=0;pointerEvents=1;" parent="rq8LcoA_C-CREQ77X2FL-113" vertex="1">
          <mxGeometry width="90" height="27" as="geometry">
            <mxRectangle width="90" height="27" as="alternateBounds" />
          </mxGeometry>
        </mxCell>
        <mxCell id="rq8LcoA_C-CREQ77X2FL-115" value="nat-gw-id&amp;nbsp;" style="shape=partialRectangle;html=1;whiteSpace=wrap;connectable=0;strokeColor=inherit;overflow=hidden;fillColor=none;top=0;left=0;bottom=0;right=0;pointerEvents=1;" parent="rq8LcoA_C-CREQ77X2FL-113" vertex="1">
          <mxGeometry x="90" width="63" height="27" as="geometry">
            <mxRectangle width="63" height="27" as="alternateBounds" />
          </mxGeometry>
        </mxCell>
        <mxCell id="rq8LcoA_C-CREQ77X2FL-116" value="Tabla Enrutamiento Publica" style="text;html=1;align=center;verticalAlign=middle;whiteSpace=wrap;rounded=0;" parent="1" vertex="1">
          <mxGeometry x="663.92" y="13" width="158" height="30" as="geometry" />
        </mxCell>
        <mxCell id="rq8LcoA_C-CREQ77X2FL-117" value="Tabla Enrutamiento Privada" style="text;html=1;align=center;verticalAlign=middle;whiteSpace=wrap;rounded=0;" parent="1" vertex="1">
          <mxGeometry x="665.25" y="116" width="158" height="30" as="geometry" />
        </mxCell>
        <mxCell id="rq8LcoA_C-CREQ77X2FL-119" value="Sandra W. Graña" style="text;html=1;align=center;verticalAlign=middle;whiteSpace=wrap;rounded=0;fontColor=light-dark(#252525,#EDEDED);labelPosition=center;verticalLabelPosition=middle;" parent="1" vertex="1">
          <mxGeometry x="699" y="210.17000000000002" width="141" height="30" as="geometry" />
        </mxCell>
      </root>
    </mxGraphModel>
  </diagram>
</mxfile>
